<?xml version="1.0" encoding="iso-8859-1"?>
<!DOCTYPE svg PUBLIC "-//W3C//DTD SVG 1.1//EN" "http://www.w3.org/Graphics/SVG/1.1/DTD/svg11.dtd">
<svg 
 version="1.1" xmlns="http://www.w3.org/2000/svg" xmlns:xlink="http://www.w3.org/1999/xlink" x="0px" y="0px" width="512px"
	 height="512px" viewBox="0 0 512 512" enable-background="new 0 0 512 512" xml:space="preserve"
><g id="5151e0c8492e5103c096af88a5244322"><g></g><path display="inline" d="M256,339.439c-129.156,0-235.863-27.797-253.03-63.875H0.5c0,129.35,114.384,234.207,255.5,234.207
		c141.107,0,255.5-104.857,255.5-234.207h-2.479C491.855,311.643,385.147,339.439,256,339.439z M298.583,488.48
		c60.474-29.666,106.351-80.992,125.405-142.662c17.382-4.82,33.135-10.488,46.583-17.043
		C451.127,407.098,384.041,469.16,298.583,488.48z M185.513,123.191c-10.005-13.004-1.646-21.363,11.353-11.357
		c2.121-16.269,13.939-16.269,16.06,0c13-10.006,21.358-1.647,11.353,11.357c16.268,2.121,16.268,13.939,0,16.06
		c10.005,13,1.646,21.358-11.353,11.353c-2.121,16.269-13.939,16.272-16.06,0c-13,10.006-21.358,1.647-11.353-11.353
		C169.245,137.13,169.245,125.308,185.513,123.191z M256,332.564c141.107,0,255.5-33.172,255.5-74.088
		c0-27.534-51.832-51.553-128.728-64.32c20.261-10.289,41.115-25.6,57.675-48.38c45.702-62.881,16.9-143.548,16.9-143.548
		s3.526,18.905-25.85,38.579c-29.151,19.533-69.489,20.252-110.654,62.307c-0.545-2.894-1.243-5.83-2.188-8.824
		c-8.903-28.187-30.677-42.92-59.128-39.182c-5.24-28.852-24.993-45.69-54.628-45.69c-29.64,0-49.397,16.838-54.637,45.69
		c-28.434-3.743-50.227,10.999-59.12,39.186c-9.084,28.765,0.445,53.15,25.552,67.168c-4.302,9.195-6.358,18.302-6.123,27.176
		c0.1,4.03,0.686,7.955,1.707,11.752c-0.399-0.973-0.798-1.946-1.138-2.936C44.323,210.815,0.5,233.159,0.5,258.477
		C0.5,299.393,114.884,332.564,256,332.564z M447.135,45.202c0,0,7.602,7.647-20.984,31.8
		c-23.754,20.077-82.28,54.618-101.061,77.436c-8.467,10.284-13.041,21.57-15.49,31.605c-3.436-0.212-6.899-0.399-10.389-0.574
		c-0.096-2.558-0.416-5.148-0.894-7.764c3.326-10.476,9.107-22.232,19.129-32.927c26.016-27.742,77.723-52.506,106.242-71.997
		C444.465,58.58,447.135,45.202,447.135,45.202z M111.447,100.702c5.211-16.513,15.38-24.884,30.227-24.884
		c4.535,0,9.556,0.794,14.925,2.362l13.11,3.822l0.509-13.644c0.934-24.98,12.603-37.647,34.682-37.647
		c22.074,0,33.74,12.667,34.674,37.647l0.509,13.64l13.106-3.817c22.993-6.695,38.354,0.965,45.166,22.522
		c6.911,21.891-1.127,37.36-23.891,45.981l-12.359,4.678l7.203,11.083c9.34,14.359,15.748,35.011-6.745,51.824
		c-7.164,5.348-14.208,8.063-20.943,8.063c-12.39,0-22.208-9.436-28.265-17.35l-8.45-11.045l-8.457,11.045
		c-6.063,7.914-15.89,17.354-28.268,17.354c-6.735,0-13.779-2.715-20.938-8.063c-10.104-7.556-15.135-16.114-15.387-26.178
		c-0.208-7.905,2.697-16.534,8.633-25.646l7.221-11.083l-12.372-4.683C112.572,138.062,104.534,122.597,111.447,100.702z
		 M65.439,228.132c10.762,29.019,32.004,64.028,64.316,87.603c-10.554-1.234-14.414-1.887-24.061-3.488
		c-32.661-18.488-56.54-45.402-65.805-76.513C65.439,228.132,65.439,228.132,65.439,228.132z"></path></g></svg>